:SAMPLES-PER-SECOND 30
:FULLY-SPECIFIED
:DEGREES
446
root  -3.77145 40.9966 0.330904 6.07559 -85.9417 -3.63065
RightUpLeg  3.12403 -1.08122 -0.584689
RightLeg  -6.40342 -23.217 3.2403
RightFoot  1.46906 -0.24161 2.12938
RightToes  -3.13588e-008 1.75238e-005 3.56266e-009
Spine  -0.202896 0.469252 -5.20114
Spine1  -2.38281 -0.461256 7.19678
HEad  -15.3945 -3.34899 5.45484
LeftShoulder1  1.90127 -2.69472 -24.4637
LeftArm  26.7744 7.4852 -32.1591
LeftForeArm  45.972 -44.7122 -7.94379
LeftHand  -0.916577 -5.36003 10.1815
RightShoulder  1.70572 2.55372 21.9374
RightArm  24.6583 -14.0258 21.6662
RightForeArm  14.8822 59.4538 18.0369
RightHand  -1.0488 8.82375 -8.91448
LeftUpLeg  1.2871 1.39785 3.73758
LeftLeg  -3.85002 11.029 -0.934485
LeftFoot  1.18909 0.415867 -3.85074
LeftToes  4.76812e-008 1.47286e-008 1.3089e-009
447
root  -3.71568 40.9984 0.329601 6.14191 -85.6826 -3.75302
RightUpLeg  3.17474 -1.12079 -0.585177
RightLeg  -6.5344 -23.4375 3.37694
RightFoot  1.56581 -0.236911 2.05585
RightToes  -3.13588e-008 1.75238e-005 3.56266e-009
Spine  -0.25146 0.450006 -4.91125
Spine1  -2.2092 -0.419968 6.6848
HEad  -14.975 -3.51415 5.74298
LeftShoulder1  1.90658 -2.73749 -24.3343
LeftArm  21.768 6.32411 -30.7394
LeftForeArm  46.1603 -50.0587 -9.83118
LeftHand  -0.836905 -4.58178 10.0182
RightShoulder  1.66545 2.46832 21.6513
RightArm  22.6592 -11.9434 21.6223
RightForeArm  14.8889 60.4165 18.8345
RightHand  -1.04167 8.94575 -8.78631
LeftUpLeg  1.1719 1.36996 3.74255
LeftLeg  -3.76685 10.8128 -0.864383
LeftFoot  1.25753 0.415569 -3.81008
LeftToes  4.76812e-008 1.47286e-008 1.3089e-009
448
root  -3.67057 40.998 0.327469 6.34991 -85.5958 -3.96637
RightUpLeg  3.09468 -1.11723 -0.566425
RightLeg  -6.49559 -23.5227 3.38605
RightFoot  1.59484 -0.234742 2.02198
RightToes  -3.13588e-008 1.75238e-005 3.56266e-009
Spine  -0.212853 0.528838 -4.71781
Spine1  -2.27282 -0.280452 6.28088
HEad  -14.4858 -3.74557 6.24926
LeftShoulder1  1.92103 -2.81588 -24.1738
LeftArm  17.8975 5.76573 -28.4927
LeftForeArm  48.6742 -59.6303 -14.8944
LeftHand  -0.908979 -4.33486 11.1124
RightShoulder  1.61977 2.40657 21.1274
RightArm  21.0411 -9.83017 21.1151
RightForeArm  16.144 62.9349 21.0423
RightHand  -1.03425 8.99608 -8.69879
LeftUpLeg  1.03566 1.38515 3.77152
LeftLeg  -3.65882 10.7097 -0.848351
LeftFoot  1.29128 0.418101 -3.82678
LeftToes  4.76812e-008 1.47286e-008 1.3089e-009
449
root  -3.62441 40.9999 0.341472 5.52853 -85.7552 -3.12131
RightUpLeg  2.89739 -1.18601 -0.683749
RightLeg  -6.30702 -23.312 3.30236
RightFoot  1.60081 -0.231885 1.97787
RightToes  -3.13588e-008 1.75238e-005 3.56266e-009
Spine  0.125813 0.681917 -4.44347
Spine1  -2.59723 -0.0336144 5.67781
HEad  -14.4371 -3.90979 7.03048
LeftShoulder1  1.77995 -2.44596 -23.6713
LeftArm  15.7276 5.59511 -25.6222
LeftForeArm  61.5248 -73.3754 -32.3669
LeftHand  -0.899261 -4.0682 11.29
RightShoulder  1.50086 2.15606 20.1955
RightArm  19.7564 -8.06461 20.0318
RightForeArm  20.9316 68.1056 27.4788
RightHand  -1.11522 8.79562 -9.4693
LeftUpLeg  1.0505 1.27587 3.64024
LeftLeg  -3.83769 10.97 -0.869202
LeftFoot  1.41671 0.416898 -3.7862
LeftToes  4.76812e-008 1.47286e-008 1.3089e-009
450
root  -3.61072 41.004 0.367778 6.30545 -85.8883 -3.83273
RightUpLeg  2.91332 -1.13204 -0.669505
RightLeg  -6.58521 -23.223 3.38185
RightFoot  1.77421 -0.231701 1.97567
RightToes  -3.13588e-008 1.75238e-005 3.56266e-009
Spine  0.533111 0.892497 -4.01597
Spine1  -3.09195 0.253701 5.13803
HEad  -14.6364 -4.09334 7.39742
LeftShoulder1  1.65293 -2.17299 -22.809
LeftArm  13.6183 4.99755 -23.316
LeftForeArm  127.579 -80.7892 -102.167
LeftHand  -0.947967 -4.2101 11.7206
RightShoulder  1.42168 2.06452 19.1037
RightArm  18.7339 -7.24017 17.6266
RightForeArm  42.5857 76.2334 50.4768
RightHand  -1.1601 8.85493 -9.7943
LeftUpLeg  0.993179 1.25908 3.62671
LeftLeg  -3.87224 11.1459 -0.870846
LeftFoot  1.43029 0.413781 -3.72467
LeftToes  4.76812e-008 1.47286e-008 1.3089e-009
451
root  -3.62232 41.0062 0.394482 6.23941 -85.8925 -3.44907
RightUpLeg  2.61742 -1.14278 -0.75265
RightLeg  -6.65323 -23.1869 3.42556
RightFoot  1.86224 -0.235223 2.03144
RightToes  -3.13588e-008 1.75238e-005 3.56266e-009
Spine  1.09033 0.981707 -3.52294
Spine1  -4.18755 0.441865 4.55671
HEad  -15.0925 -4.47254 7.50235
LeftShoulder1  1.44832 -1.69257 -21.506
LeftArm  12.2092 2.9252 -22.2614
LeftForeArm  175.42 -71.2335 -152.782
LeftHand  -1.10437 -4.61386 13.0435
RightShoulder  1.14877 1.2731 17.4991
RightArm  18.0197 -6.03737 15.9261
RightForeArm  104.835 78.5547 113.466
RightHand  -1.22381 9.2408 -10.0537
LeftUpLeg  0.686915 1.14782 3.53932
LeftLeg  -3.91869 11.275 -0.878004
LeftFoot  1.46932 0.412486 -3.70828
LeftToes  4.76812e-008 1.47286e-008 1.3089e-009
452
root  -3.66699 41.0064 0.418961 5.60645 -86.0056 -2.47086
RightUpLeg  2.28799 -1.13747 -0.855982
RightLeg  -6.61389 -23.1175 3.37703
RightFoot  1.87096 -0.241799 2.13505
RightToes  -3.13588e-008 1.75238e-005 3.56266e-009
Spine  1.19333 0.906598 -3.26495
Spine1  -5.20052 0.428087 4.29797
HEad  -15.029 -4.45979 7.12932
LeftShoulder1  1.38621 -1.66094 -20.4022
LeftArm  10.278 0.643495 -21.4863
LeftForeArm  -174.5 -60.4568 -164.088
LeftHand  -1.39643 -6.44774 13.9833
RightShoulder  0.954571 0.774004 15.6618
RightArm  17.1998 -3.34097 15.5124
RightForeArm  139.682 70.2925 148.993
RightHand  -1.29678 9.85669 -10.2193
LeftUpLeg  0.54133 1.04013 3.42077
LeftLeg  -4.21185 11.5204 -0.971864
LeftFoot  1.58235 0.411338 -3.71891
LeftToes  4.76812e-008 1.47286e-008 1.3089e-009
